<svg width="143" height="48" viewBox="0 0 143 48" fill="none" xmlns="http://www.w3.org/2000/svg">
<path d="M29.5411 6.41797C32.2324 11.6948 33.7501 17.6702 33.7501 24.0001C33.7501 30.3301 32.2324 36.3055 29.541 41.5824C35.7714 38.1943 40.0003 31.5911 40.0003 24.0002C40.0003 16.4093 35.7714 9.8061 29.5411 6.41797Z" fill="#6172F3"/>
<path d="M20.5481 5.99814C19.6434 4.71661 18.1024 4.02643 16.5568 4.29465C7.15184 5.92679 0 14.1281 0 23.9997C0 33.8714 7.1518 42.0726 16.5567 43.7048C18.1023 43.973 19.6434 43.2828 20.548 42.0013C24.1403 36.9124 26.2505 30.7025 26.2505 23.9997C26.2505 17.2969 24.1404 11.0871 20.5481 5.99814Z" fill="#444CE7"/>
<path fill-rule="evenodd" clip-rule="evenodd" d="M58 26.2249V21.9077C58.9338 16.976 63.0512 13.4469 68.2378 13.4469C72.8654 13.4469 77.0811 16.5979 77.8585 20.2756L77.9095 20.5169H73.6964L73.6476 20.3875C72.9308 18.485 70.615 17.153 68.2378 17.153C64.5306 17.153 61.7098 20.1268 61.7098 24.0579C61.7098 28.0152 64.5278 31.021 68.4698 31.021C71.4785 31.021 73.7868 29.111 74.4021 26.3459H67.0958V22.6689H78.1206L78.1497 22.8342C78.2393 23.3418 78.2978 24.166 78.2978 24.7829C78.2978 30.6111 73.9405 34.727 68.2378 34.727C63.0268 34.727 58.9308 31.1775 58 26.2249Z" fill="#0C111D"/>
<path fill-rule="evenodd" clip-rule="evenodd" d="M83.0838 25.041H79.7785L79.7961 24.8247C80.0374 21.8691 82.6855 19.5659 85.8245 19.5659C87.8351 19.5659 89.4053 20.1506 90.4736 21.1924C91.5422 22.2345 92.0855 23.7115 92.0855 25.4499V34.437H88.6405V33.0268C87.6326 34.1339 86.2463 34.727 84.5195 34.727C81.671 34.727 79.6795 32.8557 79.6795 30.351C79.6795 28.7903 80.3726 27.5194 81.6131 26.6458C82.8464 25.7772 84.6096 25.3079 86.7525 25.3079H88.6405V25.2469C88.6405 24.4396 88.3612 23.7841 87.8802 23.3297C87.3983 22.8743 86.6966 22.6049 85.8245 22.6049C84.3368 22.6049 83.1742 23.534 83.0951 24.8529L83.0838 25.041ZM83.4894 31.2906C83.8559 31.589 84.3954 31.775 85.0705 31.775C87.1994 31.775 88.6405 30.1763 88.6405 28.5239V28.1149H86.6655C85.4162 28.1149 84.4693 28.2883 83.8417 28.6242C83.5306 28.7906 83.3027 28.9945 83.152 29.233C83.0018 29.4707 82.9215 29.7536 82.9215 30.09C82.9215 30.5801 83.1259 30.9947 83.4894 31.2906Z" fill="#0C111D"/>
<path fill-rule="evenodd" clip-rule="evenodd" d="M97.8538 13.7369V34.437H94.2347V13.7369H97.8538Z" fill="#0C111D"/>
<path fill-rule="evenodd" clip-rule="evenodd" d="M100.282 19.8559H103.901V34.437H100.282V19.8559Z" fill="#0C111D"/>
<path fill-rule="evenodd" clip-rule="evenodd" d="M110.118 13.7369V34.437H106.499V13.7369H110.118Z" fill="#0C111D"/>
<path fill-rule="evenodd" clip-rule="evenodd" d="M126.1 28.1149H115.042C115.213 29.1318 115.663 29.9703 116.319 30.5653C117.022 31.2033 117.973 31.5719 119.103 31.5719C120.879 31.5719 122.154 30.731 122.416 29.5255L122.45 29.3679H126.037L125.999 29.6002C125.486 32.7364 122.655 34.727 119.132 34.727C114.873 34.727 111.566 31.4174 111.566 27.1029C111.566 22.8455 114.874 19.5659 119.074 19.5659C123.011 19.5659 126.176 22.6414 126.176 26.6969C126.176 26.9936 126.146 27.6087 126.117 27.9331L126.1 28.1149ZM115.251 25.3659H122.325C122.065 23.8213 120.697 22.6919 118.929 22.6919C117.996 22.6919 117.185 22.956 116.546 23.4479C115.965 23.8954 115.517 24.5389 115.251 25.3659Z" fill="#0C111D"/>
<path fill-rule="evenodd" clip-rule="evenodd" d="M99.8467 15.5609C99.8467 14.3231 100.861 13.2729 102.106 13.2729C103.378 13.2729 104.394 14.3213 104.394 15.5609C104.394 16.7734 103.376 17.82 102.106 17.82C100.862 17.82 99.8467 16.7716 99.8467 15.5609Z" fill="#0C111D"/>
<path fill-rule="evenodd" clip-rule="evenodd" d="M134.468 19.5659C138.725 19.5659 142.034 22.8455 142.034 27.1609C142.034 31.4479 138.725 34.727 134.468 34.727C130.21 34.727 126.931 31.4469 126.931 27.1609C126.931 22.8465 130.209 19.5659 134.468 19.5659ZM130.463 27.1609C130.463 29.4602 132.203 31.2239 134.468 31.2239C136.706 31.2239 138.502 29.4575 138.502 27.1609C138.502 24.8327 136.704 23.0399 134.468 23.0399C132.205 23.0399 130.463 24.83 130.463 27.1609Z" fill="#0C111D"/>
</svg>
